<svg version="1.1" xmlns="http://www.w3.org/2000/svg" width="600" height="600">
<path d="M0 0 C198 0 396 0 600 0 C600 198 600 396 600 600 C402 600 204 600 0 600 C0 402 0 204 0 0 Z " fill="#FEFEFE" transform="translate(0,0)"/>
<path d="M0 0 C2.80655638 2.6475488 4.08366088 5.0368449 5.5625 8.625 C5.97628906 9.60726562 6.39007812 10.58953125 6.81640625 11.6015625 C14.83068629 34.61286161 9.26398153 59.67763907 -1 81 C-6.44999969 91.45633613 -14.08599584 100.33717541 -22 109 C-22.63808594 109.69867188 -23.27617187 110.39734375 -23.93359375 111.1171875 C-62.40945118 151.16160506 -128.43764394 177.82226256 -182 189 C-182.75539063 189.16516113 -183.51078125 189.33032227 -184.2890625 189.50048828 C-204.57500363 193.87231213 -225.39736386 195.719215 -246 198 C-246.88335022 198.0980896 -247.76670044 198.1961792 -248.67681885 198.29724121 C-251.28025662 198.58463254 -253.88414282 198.86747243 -256.48828125 199.1484375 C-257.27228806 199.23469391 -258.05629486 199.32095032 -258.86405945 199.40982056 C-262.59208221 199.80587484 -266.2499456 200.10141569 -270 200 C-269.96519531 200.7528125 -269.93039062 201.505625 -269.89453125 202.28125 C-269.36537604 223.0442927 -275.6485825 241.99928355 -289 258 C-289.62519531 258.78632813 -290.25039063 259.57265625 -290.89453125 260.3828125 C-301.71929094 273.39016121 -318.1102907 282.97785693 -335 285 C-342.13867201 285.18810538 -349.21959661 284.88310721 -356.33666992 284.35742188 C-357.3038797 284.28914688 -358.27108948 284.22087189 -359.26760864 284.15052795 C-362.42216947 283.92694211 -365.57630752 283.69789792 -368.73046875 283.46875 C-370.93432741 283.31146896 -373.1382107 283.15453264 -375.34211731 282.9979248 C-381.11097787 282.58707195 -386.87949428 282.17156988 -392.64794922 281.75506592 C-398.54699804 281.32997065 -404.44636353 280.90931852 -410.34570312 280.48828125 C-421.89744787 279.66317795 -433.44883358 278.8331578 -445 278 C-445 277.01 -445 276.02 -445 275 C-418.11176392 265.29970437 -391.66013413 256.5811922 -363 254 C-363.59129018 251.31573028 -364.2760714 249.51586145 -366.55957031 247.88867188 C-368.71464291 246.75010219 -370.89586154 245.73601713 -373.125 244.75 C-373.95741211 244.3694043 -374.78982422 243.98880859 -375.64746094 243.59667969 C-391.0140125 236.71250977 -406.98077796 231.15347066 -423 226 C-425.00068882 225.33540337 -427.00090232 224.66936754 -429 224 C-426.18201413 218.72218954 -423.0070499 214.30065559 -419.0625 209.8125 C-418.21196045 208.838573 -418.21196045 208.838573 -417.34423828 207.8449707 C-412.09211125 201.92998902 -406.42872258 196.58724688 -400.50830078 191.35253906 C-399.10403958 190.09329544 -397.73588086 188.79410923 -396.37109375 187.4921875 C-382.85634019 174.65832992 -366.90082377 164.5991792 -351 155 C-350.34386719 154.60361328 -349.68773437 154.20722656 -349.01171875 153.79882812 C-322.68640678 138.07449582 -294.34766449 127.05109886 -264.8046875 119.05859375 C-261.22967398 118.19445974 -261.22967398 118.19445974 -259 117 C-257.81067249 114.1850101 -256.72885298 111.38683245 -255.69140625 108.515625 C-255.36858673 107.63999908 -255.04576721 106.76437317 -254.71316528 105.86221313 C-254.01837502 103.97533332 -253.3267844 102.08727292 -252.63803101 100.19818115 C-251.56321478 97.2519593 -250.47901378 94.30936014 -249.3918457 91.36767578 C-246.65627042 83.96191131 -243.93372127 76.55139413 -241.21972656 69.13769531 C-239.94878508 65.66787551 -238.66762685 62.20201457 -237.37789917 58.73913574 C-236.69770183 56.9025458 -236.03050873 55.06115651 -235.36352539 53.21972656 C-234.9586792 52.13401367 -234.55383301 51.04830078 -234.13671875 49.9296875 C-233.62177856 48.52565674 -233.62177856 48.52565674 -233.09643555 47.09326172 C-232 45 -232 45 -229 44 C-226.58666992 44.94042969 -226.58666992 44.94042969 -223.73046875 46.421875 C-222.68391113 46.95200195 -221.63735352 47.48212891 -220.55908203 48.02832031 C-219.44645996 48.59647461 -218.33383789 49.16462891 -217.1875 49.75 C-198.81330876 58.79535557 -183.15157814 60.38211698 -162.9375 58.14453125 C-149.83603748 56.69656258 -136.69300184 55.72776579 -123.55249023 54.71289062 C-119.88207116 54.42937827 -116.212019 54.14138655 -112.54204845 53.8521328 C-109.68452561 53.62737564 -106.82683146 53.40486233 -103.96907997 53.18303299 C-101.96270504 53.0269184 -99.95647116 52.86899434 -97.95024109 52.71102905 C-96.73069229 52.61738068 -95.51114349 52.5237323 -94.25463867 52.42724609 C-93.18831711 52.34445404 -92.12199554 52.26166199 -91.02336121 52.17636108 C-88.00796333 52.00046452 -85.01976887 51.96909394 -82 52 C-85.55937482 56.90616529 -89.30752228 61.58519049 -93.25 66.1875 C-97.15314128 70.76361991 -100.97988886 75.3886139 -104.6875 80.125 C-105.3386377 80.94133911 -105.3386377 80.94133911 -106.00292969 81.77416992 C-108.52624288 84.9912634 -108.52624288 84.9912634 -109 89 C-76.85976992 90.55796447 -47.53296576 77.31123354 -23.6875 56.4375 C-15.71085697 49.03517527 -10.37288543 42.05261018 -6 32 C-5.22462891 30.22109375 -5.22462891 30.22109375 -4.43359375 28.40625 C-2.42123445 22.94283109 -1.94244098 17.25552635 -1.3125 11.5 C-1.18294922 10.39140625 -1.05339844 9.2828125 -0.91992188 8.140625 C-0.60422711 5.42798848 -0.29783213 2.71464574 0 0 Z " fill="#010101" transform="translate(518,199)"/>
<path d="M0 0 C198 0 396 0 600 0 C600 198 600 396 600 600 C402 600 204 600 0 600 C0 402 0 204 0 0 Z M10 10 C10 201.4 10 392.8 10 590 C201.4 590 392.8 590 590 590 C590 398.6 590 207.2 590 10 C398.6 10 207.2 10 10 10 Z " fill="#000000" transform="translate(0,0)"/>
<path d="M0 0 C0.33 0 0.66 0 1 0 C-1.96815562 40.1398549 -19.73364469 82.99129597 -48 112 C-49.13059303 113.34950056 -50.25573928 114.7035858 -51.375 116.0625 C-75.14519129 143.12810417 -114.46622826 160.63175975 -147 174 C-147.71140137 174.29600098 -148.42280273 174.59200195 -149.15576172 174.89697266 C-179.3904893 187.35893863 -212.0179792 193.27003965 -244.52636719 194.80566406 C-248.70180073 195.03926296 -252.84951595 195.43487834 -257.01074219 195.84326172 C-275.29146912 197.60301805 -293.65651329 197.18288621 -312 197 C-309.17990101 194.11750451 -306.40610371 191.820061 -303.0625 189.5625 C-278.32853244 171.68808611 -269.28181907 149.27928 -264 120 C-263.08734375 119.90295776 -263.08734375 119.90295776 -262.15625 119.80395508 C-247.77255474 118.26378918 -233.3998504 116.61914676 -219.03930664 114.87631226 C-217.33200068 114.6703886 -215.62432451 114.46750682 -213.91625977 114.26797485 C-202.08253577 112.88149282 -190.57212172 110.84283104 -179 108 C-177.57506226 107.65086548 -177.57506226 107.65086548 -176.12133789 107.29467773 C-150.09758157 100.62144117 -125.08016646 90.81173682 -101 79 C-99.74496485 78.38929241 -98.48975055 77.77895287 -97.234375 77.16894531 C-75.15345006 66.43197167 -75.15345006 66.43197167 -54 54 C-53.30213379 53.55172852 -52.60426758 53.10345703 -51.88525391 52.64160156 C-44.60690404 47.91336621 -37.65257772 43.23113331 -31.72265625 36.83203125 C-29.36784655 34.32770983 -26.77884258 32.1462897 -24.15234375 29.93359375 C-17.98230828 24.39063993 -12.95559203 18.53771561 -8.1875 11.75 C-7.61580078 10.94820313 -7.04410156 10.14640625 -6.45507812 9.3203125 C-4.26210274 6.23829305 -2.09832978 3.14749467 0 0 Z " fill="#010101" transform="translate(523,289)"/>
<path d="M0 0 C4.40855939 0.67531786 8.2910031 2.24757747 12.359375 4 C13.08351089 4.30719467 13.80764679 4.61438934 14.5537262 4.93089294 C16.12648322 5.59856096 17.69835587 6.26831517 19.2694397 6.93991089 C23.55950407 8.77330737 27.8564593 10.59044954 32.15234375 12.41015625 C33.4943409 12.97936546 33.4943409 12.97936546 34.8634491 13.56007385 C44.32541994 17.57012325 53.81677413 21.50820653 63.3125 25.4375 C65.01279928 26.14179118 66.71307589 26.84613709 68.41333008 27.55053711 C76.36990737 30.84599876 84.32861622 34.13627119 92.28919983 37.42204285 C95.95801002 38.93682628 99.62606974 40.45342182 103.29403687 41.97024536 C105.83696341 43.02095921 108.38097734 44.06900557 110.92504883 45.11694336 C118.92864896 48.42180043 126.89658412 51.79437435 134.8125 55.3046875 C135.54681747 55.6299794 136.28113495 55.9552713 137.03770447 56.29042053 C156.35434207 64.92086497 170.73693649 76.10913521 179 96 C181.17170572 102.00285434 181.30218766 107.5108398 181.25 113.8125 C181.25773438 114.76576172 181.26546875 115.71902344 181.2734375 116.70117188 C181.27085937 117.61060547 181.26828125 118.52003906 181.265625 119.45703125 C181.26336914 120.28178955 181.26111328 121.10654785 181.25878906 121.95629883 C181 124 181 124 179 126 C178.79246094 125.16597656 178.58492187 124.33195312 178.37109375 123.47265625 C175.55169121 113.17416917 171.64671266 105.6255218 162.28515625 100.0703125 C145.96219988 92.42503037 127.32537305 93.59794756 109.6875 93.625 C108.53924744 93.62454681 107.39099487 93.62409363 106.20794678 93.62362671 C88.80314418 93.64380241 72.07793818 94.40395885 55 98 C54.20029785 98.165 53.4005957 98.33 52.57666016 98.5 C49.49356357 99.14384875 46.42617924 99.815341 43.37109375 100.58203125 C41 101 41 101 38 100 C38.31453125 99.55011719 38.6290625 99.10023438 38.953125 98.63671875 C44.27116079 90.64364688 48.47558713 81.77300426 47 72 C44.82536252 64.76744651 41.32468222 59.21930461 36.5625 53.4375 C35.30779181 51.87043342 34.05390516 50.30270876 32.80078125 48.734375 C32.16736816 47.94869141 31.53395508 47.16300781 30.88134766 46.35351562 C27.94314953 42.67790831 25.0967113 38.93411465 22.25 35.1875 C21.17998559 33.78492879 20.10967916 32.3825803 19.0390625 30.98046875 C18.27384277 29.97765869 18.27384277 29.97765869 17.49316406 28.95458984 C15.63055931 26.51639272 13.76351114 24.08165768 11.89282227 21.6496582 C10.67150513 20.0605113 9.45479995 18.46782318 8.23828125 16.875 C6.79017837 15.01495861 5.30996923 13.17929084 3.79296875 11.375 C3.13941406 10.59125 2.48585938 9.8075 1.8125 9 C1.24144531 8.34 0.67039062 7.68 0.08203125 7 C-1 5 -1 5 -0.67578125 2.25 C-0.45277344 1.5075 -0.22976563 0.765 0 0 Z " fill="#020202" transform="translate(326,87)"/>
<path d="M0 0 C-0.4626123 0.35191406 -0.92522461 0.70382812 -1.40185547 1.06640625 C-25.35118393 19.0592418 -25.35118393 19.0592418 -47.33984375 39.33984375 C-49 41 -49 41 -52.0625 43.5 C-55.2163115 46.1840949 -57.81005715 49.08031507 -60.484375 52.23046875 C-63.67844268 55.95962509 -63.67844268 55.95962509 -67.484375 56.4375 C-73.09809658 56.28564099 -77.43714106 53.67677306 -82.25 51 C-83.63771606 50.24831543 -83.63771606 50.24831543 -85.0534668 49.48144531 C-94.87994364 44.09164902 -105.33669907 38.33947454 -113 30 C-113 29.34 -113 28.68 -113 28 C-111.95884033 27.65855957 -110.91768066 27.31711914 -109.8449707 26.96533203 C-104.99503332 25.36906767 -100.15267722 23.7505938 -95.3125 22.125 C-94.43965363 21.83265472 -93.56680725 21.54030945 -92.66751099 21.23910522 C-82.57328188 17.84083002 -72.87166839 14.31043582 -63.4375 9.3125 C-55.20639674 5.05312865 -48.04731616 3.80168649 -38.84765625 3.36328125 C-30.36539383 2.95195659 -21.98355735 1.50064874 -13.59570312 0.23095703 C-12.40783203 0.05806152 -11.21996094 -0.11483398 -9.99609375 -0.29296875 C-8.93575928 -0.4530542 -7.8754248 -0.61313965 -6.78295898 -0.77807617 C-4.18388376 -0.9853364 -2.44979846 -0.82027952 0 0 Z " fill="#030303" transform="translate(461,456)"/>
<path d="M0 0 C3.0482673 2.46455654 4.83325083 4.74987624 7 8 C7.49496359 13.24661407 6.7511969 16.51656801 4 21 C1.95943261 23.4656856 1.13026076 23.95657975 -2 25 C-7.30585376 25.34231315 -10.73795828 25.53140599 -15 22 C-18.35660345 18.18041676 -18.56798612 14.34343429 -18.421875 9.44140625 C-17.72071026 5.38373994 -16.02786468 3.75260426 -13 1 C-8.65041763 -1.66355869 -4.81492518 -1.34989867 0 0 Z " fill="#F9F9F9" transform="translate(154,386)"/>
</svg>
